<svg width="1050" height="185" viewBox="0 0 1050 185" fill="none" xmlns="http://www.w3.org/2000/svg">
<path d="M178.4 6.04215C168.127 -4.23048 148.479 -1.36206 121.568 14.3248C121.281 14.4861 121.03 14.7013 120.779 14.8985C111.869 11.5998 102.26 9.75321 92.2214 9.75321C46.758 9.75321 9.75304 46.7375 9.75304 92.2216C9.75304 102.261 11.5817 111.888 14.8983 120.78C14.7011 121.031 14.486 121.282 14.3246 121.568C-1.36199 148.479 -4.23042 168.145 6.04199 178.4C10.0041 182.362 15.4899 184.334 22.2844 184.334C33.0768 184.334 47.1869 179.368 63.7687 169.579C72.6429 172.86 82.2164 174.671 92.2189 174.671C137.682 174.671 174.687 137.687 174.687 92.2027C174.687 82.199 172.877 72.6076 169.596 63.7157C185.498 36.7525 188.672 16.3157 178.4 6.04215ZM117.016 58.0318C118.988 58.0318 120.601 59.6453 120.601 61.6173C120.601 63.5894 118.988 65.2029 117.016 65.2029C115.043 65.2029 113.43 63.5894 113.43 61.6173C113.43 59.6453 115.026 58.0318 117.016 58.0318ZM76.7497 39.0105C81.6976 39.0105 85.7134 43.0263 85.7134 47.9742C85.7134 52.9221 81.6976 56.9379 76.7497 56.9379C71.8018 56.9379 67.786 52.9221 67.786 47.9742C67.786 43.0263 71.8018 39.0105 76.7497 39.0105ZM55.7923 82.4499C65.6705 82.4499 73.72 90.4994 73.72 100.378C73.72 110.256 65.6705 118.305 55.7923 118.305C45.9141 118.305 37.8646 110.256 37.8646 100.378C37.8646 90.4994 45.8962 82.4499 55.7923 82.4499ZM16.1553 168.287C12.8208 164.952 13.7171 153.73 22.5913 136.321C26.9477 143.152 32.2542 149.337 38.3677 154.608C38.4394 154.572 38.4931 154.518 38.5649 154.5C59.1278 145.034 81.7335 127.824 105.776 103.334C128.239 80.4584 150.165 49.9814 154.575 38.3655C149.305 32.2702 143.138 26.9634 136.307 22.6249C153.733 13.7507 164.939 12.8544 168.273 16.1889C171.715 19.631 170.675 30.9434 161.64 48.4942C153.035 64.5932 132.345 91.6101 113.45 110.865C98.8929 125.691 85.1056 137.757 71.8053 147.276C71.2854 147.634 70.7835 147.993 70.2636 148.352C69.7795 148.692 69.3134 149.015 68.8293 149.356C65.6383 151.543 62.4651 153.604 59.3456 155.523C55.5451 157.835 51.798 159.933 48.0691 161.833C48.087 161.833 48.087 161.851 48.1049 161.851C30.733 170.707 19.579 171.711 16.1553 168.287ZM129.853 142.847C126.662 142.847 124.062 140.248 124.062 137.057C124.062 133.866 126.662 131.266 129.853 131.266C133.044 131.266 135.643 133.866 135.643 137.057C135.643 140.248 133.044 142.847 129.853 142.847Z" fill="url(#paint0_linear_139_571)"/>
<path d="M345.434 137.82C345.434 139.224 345.159 140.527 344.607 141.73C344.106 142.934 343.404 143.986 342.502 144.889C341.65 145.741 340.622 146.418 339.419 146.919C338.216 147.42 336.937 147.671 335.584 147.671C334.381 147.671 333.152 147.445 331.899 146.994C330.696 146.543 329.618 145.816 328.666 144.813L257.23 70.2197V146.167H237.679V46.6836C237.679 44.6784 238.231 42.8737 239.334 41.2695C240.487 39.6152 241.941 38.387 243.695 37.585C245.55 36.833 247.455 36.6576 249.41 37.0586C251.365 37.4095 253.044 38.3118 254.448 39.7656L325.884 114.284V38.3369H345.434V137.82ZM436.12 101.05H365.587V83.4541H436.12V101.05ZM559.816 114.435C559.816 118.295 559.315 121.779 558.312 124.887C557.36 127.945 556.081 130.652 554.477 133.008C552.873 135.364 550.993 137.369 548.838 139.023C546.682 140.678 544.451 142.031 542.145 143.084C539.839 144.137 537.483 144.914 535.077 145.415C532.721 145.916 530.49 146.167 528.385 146.167H452.964V126.616H528.385C532.144 126.616 535.052 125.513 537.107 123.308C539.213 121.102 540.265 118.144 540.265 114.435C540.265 112.63 539.99 110.976 539.438 109.472C538.887 107.968 538.085 106.664 537.032 105.562C536.029 104.459 534.776 103.606 533.272 103.005C531.818 102.403 530.189 102.103 528.385 102.103H483.418C480.26 102.103 476.851 101.551 473.191 100.448C469.532 99.2952 466.123 97.4655 462.965 94.959C459.857 92.4525 457.25 89.1689 455.144 85.1084C453.089 81.0479 452.061 76.085 452.061 70.2197C452.061 64.3545 453.089 59.4167 455.144 55.4062C457.25 51.3457 459.857 48.0622 462.965 45.5557C466.123 42.999 469.532 41.1693 473.191 40.0664C476.851 38.9134 480.26 38.3369 483.418 38.3369H549.966V57.8877H483.418C479.708 57.8877 476.801 59.0156 474.695 61.2715C472.64 63.5273 471.612 66.5101 471.612 70.2197C471.612 73.9795 472.64 76.9622 474.695 79.168C476.801 81.3236 479.708 82.4014 483.418 82.4014H528.385H528.535C530.64 82.4515 532.871 82.7523 535.227 83.3037C537.583 83.805 539.914 84.6071 542.22 85.71C544.577 86.8128 546.807 88.2165 548.913 89.9209C551.018 91.5752 552.873 93.5804 554.477 95.9365C556.132 98.2926 557.435 101 558.387 104.058C559.34 107.116 559.816 110.575 559.816 114.435ZM683.512 83.4541C683.512 87.9157 682.961 91.901 681.858 95.4102C680.755 98.9193 679.251 102.027 677.346 104.734C675.492 107.391 673.336 109.672 670.88 111.577C668.423 113.482 665.842 115.036 663.135 116.239C660.478 117.442 657.771 118.32 655.013 118.871C652.306 119.423 649.75 119.698 647.344 119.698H603.129V100.147H647.344C649.85 99.9469 652.106 99.4456 654.111 98.6436C656.166 97.7913 657.921 96.6634 659.375 95.2598C660.829 93.8561 661.956 92.1768 662.759 90.2217C663.561 88.2165 663.962 85.9606 663.962 83.4541V74.5811C663.711 72.1247 663.185 69.8688 662.383 67.8135C661.581 65.7581 660.478 64.0036 659.074 62.5498C657.72 61.096 656.066 59.9681 654.111 59.166C652.156 58.3138 649.9 57.8877 647.344 57.8877H603.279C600.672 57.8877 598.692 58.5645 597.339 59.918C595.985 61.2715 595.308 63.2266 595.308 65.7832V146.167H575.758V65.7832C575.758 60.7702 576.66 56.5091 578.465 53C580.319 49.4909 582.6 46.6585 585.307 44.5029C588.065 42.3473 591.047 40.7933 594.256 39.8408C597.464 38.8382 600.422 38.3369 603.129 38.3369H647.344C651.755 38.3369 655.715 38.9134 659.224 40.0664C662.734 41.1693 665.817 42.6732 668.473 44.5781C671.18 46.4329 673.461 48.5885 675.316 51.0449C677.221 53.5013 678.775 56.083 679.978 58.79C681.232 61.4469 682.134 64.154 682.685 66.9111C683.237 69.6182 683.512 72.1748 683.512 74.5811V83.4541ZM806.081 146.167H786.53V119.698H717.802V146.167H698.251V92.252C698.251 84.3815 699.604 77.1377 702.311 70.5205C705.018 63.9033 708.778 58.2135 713.591 53.4512C718.403 48.6888 724.093 44.9792 730.66 42.3223C737.227 39.6654 744.396 38.3369 752.166 38.3369H796.23C797.584 38.3369 798.862 38.5876 800.065 39.0889C801.268 39.5902 802.321 40.292 803.223 41.1943C804.126 42.0967 804.828 43.1494 805.329 44.3525C805.83 45.5557 806.081 46.834 806.081 48.1875V146.167ZM717.802 100.147H786.53V57.8877H752.166C751.564 57.8877 750.286 57.988 748.331 58.1885C746.426 58.3389 744.195 58.765 741.638 59.4668C739.132 60.1686 736.475 61.2464 733.668 62.7002C730.86 64.154 728.279 66.1592 725.923 68.7158C723.567 71.2725 721.611 74.4808 720.057 78.3408C718.553 82.1507 717.802 86.7878 717.802 92.252V100.147ZM925.416 146.167H854.883C853.078 146.167 851.123 145.966 849.017 145.565C846.962 145.114 844.907 144.438 842.851 143.535C840.846 142.633 838.916 141.48 837.061 140.076C835.206 138.622 833.552 136.893 832.098 134.888C830.695 132.832 829.567 130.476 828.715 127.819C827.862 125.112 827.436 122.079 827.436 118.721V65.7832C827.436 63.9785 827.637 62.0485 828.038 59.9932C828.489 57.8877 829.166 55.8324 830.068 53.8271C830.97 51.7718 832.149 49.8167 833.602 47.9619C835.056 46.1071 836.786 44.4779 838.791 43.0742C840.846 41.6204 843.202 40.4674 845.859 39.6152C848.516 38.763 851.524 38.3369 854.883 38.3369H925.416V57.8877H854.883C852.326 57.8877 850.371 58.5645 849.017 59.918C847.664 61.2715 846.987 63.2767 846.987 65.9336V118.721C846.987 121.227 847.664 123.182 849.017 124.586C850.421 125.939 852.376 126.616 854.883 126.616H925.416V146.167ZM1032.57 102.103H970.834V82.4014H1032.57V102.103ZM1041.37 146.167H970.834C968.127 146.167 965.169 145.691 961.961 144.738C958.752 143.786 955.77 142.232 953.012 140.076C950.305 137.87 948.025 135.038 946.17 131.579C944.365 128.07 943.463 123.784 943.463 118.721V48.1875C943.463 46.834 943.713 45.5557 944.215 44.3525C944.716 43.1494 945.393 42.0967 946.245 41.1943C947.147 40.292 948.2 39.5902 949.403 39.0889C950.606 38.5876 951.91 38.3369 953.313 38.3369H1041.37V57.8877H963.013V118.721C963.013 121.277 963.69 123.232 965.044 124.586C966.397 125.939 968.377 126.616 970.984 126.616H1041.37V146.167Z" fill="url(#paint1_linear_139_571)"/>
<defs>
<linearGradient id="paint0_linear_139_571" x1="45.8948" y1="69.9896" x2="165.221" y2="136.537" gradientUnits="userSpaceOnUse">
<stop stop-color="#39004D"/>
<stop offset="1" stop-color="#3930BF"/>
</linearGradient>
<linearGradient id="paint1_linear_139_571" x1="226.325" y1="92.167" x2="1253" y2="162" gradientUnits="userSpaceOnUse">
<stop stop-color="#392DB7"/>
<stop offset="1" stop-color="#350547"/>
</linearGradient>
</defs>
</svg>
